#!OML:ASF H:\LiuWeirdWalks\Patient Classification 1\Patient 1\Session 1\male.ASF
:FULLY-SPECIFIED
:DEGREES
439
root 0.287613 16.4833 -6.72089 -3.28175 -5.54792 -5.76768
lowerback 14.2946 0.849754 4.01421
upperback 1.38555 1.98095 3.25663
thorax -6.53541 0.898077 0.79485
lowerneck -16.252 1.38779 4.30383
upperneck 18.6153 2.08058 -5.86944
head 8.59129 0.669085 -2.44823
rclavicle -1.48592e-014 -1.98785e-014
rhumerus -42.1812 3.58809 -82.6627
rradius 31.9717
rwrist -1.40436
rhand -16.6058 -6.91762
rfingers 7.12502
rthumb 9.61573 -36.6782
lclavicle -1.48592e-014 -1.98785e-014
lhumerus -48.6985 16.2282 67.2669
lradius 28.2425
lwrist 1.61587
lhand -22.5511 -13.3492
lfingers 7.12502
lthumb 3.87659 16.5953
rfemur -16.4252 -10.5327 19.1468
rtibia 83.5678
rfoot 25.9961 1.75801
rtoes 7.4257
lfemur -25.7989 -0.371705 -22.8176
ltibia 58.2902
lfoot -20.9958 17.8105
ltoes -4.08178
440
root 0.28794 16.5223 -6.58238 -3.09183 -5.48695 -5.68167
lowerback 14.0627 0.877679 3.96406
upperback 1.3079 2.00011 3.26094
thorax -6.49103 0.909386 0.827207
lowerneck -16.406 1.40267 4.38294
upperneck 18.6183 2.09004 -5.93514
head 8.62219 0.670031 -2.48301
rclavicle 9.93923e-016 -2.3059e-014
rhumerus -42.0082 4.48868 -82.8966
rradius 32.211
rwrist -0.846891
rhand -16.6371 -6.86425
rfingers 7.12502
rthumb 9.58553 -36.6262
lclavicle 9.93923e-016 -2.3059e-014
lhumerus -48.4117 14.7386 69.2935
lradius 29.7385
lwrist 2.08293
lhand -22.6497 -13.8528
lfingers 7.12502
lthumb 3.78141 16.0934
rfemur -16.7071 -10.8407 19.0664
rtibia 83.7934
rfoot 25.1466 0.518971
rtoes 7.53176
lfemur -25.1689 -0.725558 -23.005
ltibia 57.7614
lfoot -21.0304 18.2312
ltoes -4.17482
441
root 0.290911 16.5642 -6.44683 -2.89409 -5.43787 -5.64553
lowerback 13.8535 0.907606 4.01088
upperback 1.22978 2.03884 3.27171
thorax -6.45638 0.927451 0.807958
lowerneck -16.5069 1.41692 4.50216
upperneck 18.5313 2.10163 -6.07308
head 8.61432 0.668516 -2.54755
rclavicle -3.15074e-014 -3.97569e-014
rhumerus -41.8316 5.14799 -82.9701
rradius 32.5317
rwrist -0.266333
rhand -16.768 -6.71745
rfingers 7.12502
rthumb 9.45919 -36.4852
lclavicle -3.15074e-014 -3.97569e-014
lhumerus -48.1629 13.2956 71.1608
lradius 31.2278
lwrist 2.30536
lhand -22.7393 -14.3128
lfingers 7.12502
lthumb 3.69482 15.635
rfemur -17.0134 -11.1375 19.0486
rtibia 83.9994
rfoot 24.0271 -0.724692
rtoes 7.53747
lfemur -24.5332 -1.13843 -23.1515
ltibia 57.1815
lfoot -21.0021 18.6731
ltoes -4.26985
442
root 0.295769 16.6085 -6.31471 -2.68085 -5.40243 -5.67721
lowerback 13.6737 0.936286 4.15597
upperback 1.14428 2.09395 3.29813
thorax -6.44274 0.950536 0.74672
lowerneck -16.5495 1.42011 4.61714
upperneck 18.3726 2.1024 -6.23316
head 8.57123 0.660523 -2.6191
rclavicle -1.09332e-015 -2.3059e-014
rhumerus -41.6398 5.58334 -82.8934
rradius 32.9086
rwrist 0.235735
rhand -16.9353 -6.56763
rfingers 7.12502
rthumb 9.29776 -36.3426
lclavicle -1.09332e-015 -2.3059e-014
lhumerus -47.9522 11.9186 72.867
lradius 32.7021
lwrist 2.43213
lhand -22.768 -14.7029
lfingers 7.12502
lthumb 3.66718 15.2453
rfemur -17.362 -11.4125 19.1261
rtibia 84.1998
rfoot 22.5935 -1.94303
rtoes 7.59588
lfemur -23.9089 -1.58763 -23.2285
ltibia 56.5685
lfoot -20.9391 19.1001
ltoes -4.33864
443
root 0.302475 16.6546 -6.18622 -2.44497 -5.39532 -5.74852
lowerback 13.5205 0.968777 4.35971
upperback 1.04977 2.16565 3.33795
thorax -6.45146 0.979683 0.663476
lowerneck -16.5966 1.4186 4.69967
upperneck 18.2385 2.10177 -6.37506
head 8.53674 0.651265 -2.6795
rclavicle -1.66979e-014 -3.53837e-014
rhumerus -41.4059 5.82111 -82.6807
rradius 33.3046
rwrist 0.59807
rhand -17.1131 -6.42087
rfingers 7.12502
rthumb 9.12624 -36.2034
lclavicle -1.66979e-014 -3.53837e-014
lhumerus -47.7857 10.6282 74.4181
lradius 34.1677
lwrist 2.54056
lhand -22.7476 -14.9701
lfingers 7.12502
lthumb 3.68689 14.9777
rfemur -17.7742 -11.6443 19.2707
rtibia 84.4081
rfoot 20.8244 -3.13445
rtoes 7.70193
lfemur -23.3077 -2.04033 -23.2639
ltibia 55.929
lfoot -20.8513 19.5036
ltoes -4.35552
444
root 0.309864 16.7023 -6.06087 -2.19052 -5.4124 -5.86285
lowerback 13.3856 1.00176 4.60999
upperback 0.950495 2.24698 3.39226
thorax -6.47372 1.01192 0.567681
lowerneck -16.6096 1.41729 4.75607
upperneck 18.1302 2.10406 -6.48752
head 8.50446 0.645037 -2.72539
rclavicle -1.58034e-014 -2.14687e-014
rhumerus -41.1338 5.90011 -82.3647
rradius 33.7146
rwrist 0.786493
rhand -17.2999 -6.32818
rfingers 7.12502
rthumb 8.94592 -36.1185
lclavicle -1.58034e-014 -2.14687e-014
lhumerus -47.6565 9.43535 75.8074
lradius 35.6255
lwrist 2.65444
lhand -22.6621 -15.1089
lfingers 7.12502
lthumb 3.76937 14.8375
rfemur -18.2362 -11.816 19.4931
rtibia 84.6265
rfoot 18.7224 -4.41882
rtoes 7.75891
lfemur -22.7228 -2.47354 -23.2443
ltibia 55.2632
lfoot -20.7725 19.8409
ltoes -4.31842
